<svg width="24" height="24" viewBox="0 0 24 24" fill="none" xmlns="http://www.w3.org/2000/svg">
<path d="M4.27801 8.5918C7.05101 5.8218 10.282 4.5588 11.497 5.7758C12.034 6.3128 12.085 7.2398 11.741 8.3478C11.563 8.9048 12.265 8.5978 12.265 8.5978C14.506 7.6598 16.462 7.6038 17.175 8.6248C17.555 9.1668 17.518 9.9308 17.167 10.8148C17.004 11.2218 17.215 11.2848 17.527 11.3778C18.789 11.7698 20.195 12.7138 20.195 14.3818C20.195 17.1448 16.215 20.6208 10.231 20.6208C5.66601 20.6208 1.00101 18.4078 1.00101 14.7688C1.00101 12.8668 2.20501 10.6668 4.27801 8.5918ZM16.411 14.3338C16.174 11.9428 13.029 10.2948 9.38801 10.6568C5.74801 11.0158 2.98501 13.2468 3.22101 15.6368C3.45801 18.0308 6.60301 19.6758 10.244 19.3168C13.885 18.9548 16.645 16.7248 16.411 14.3338ZM6.16201 14.4378C6.91601 12.9098 8.87401 12.0478 10.608 12.4978C12.4 12.9608 13.315 14.6518 12.584 16.2968C11.84 17.9798 9.70101 18.8768 7.88901 18.2908C6.13701 17.7248 5.39601 15.9958 6.16201 14.4378ZM8.87701 15.0158C8.31401 14.7788 7.58601 15.0238 7.23701 15.5688C6.88301 16.1158 7.04801 16.7698 7.60801 17.0248C8.17601 17.2818 8.93301 17.0378 9.28401 16.4748C9.63001 15.9068 9.44801 15.2578 8.87701 15.0158ZM10.263 14.4378C10.047 14.3538 9.77701 14.4558 9.65001 14.6698C9.52701 14.8838 9.59601 15.1278 9.81301 15.2168C10.032 15.3088 10.314 15.2048 10.441 14.9858C10.564 14.7658 10.485 14.5198 10.263 14.4378ZM15.957 2.9238C16.9573 2.71077 17.996 2.76457 18.9689 3.07981C19.9418 3.39505 20.8147 3.96063 21.5 4.7198C22.1858 5.48 22.6596 6.40725 22.8737 7.40845C23.0879 8.40965 23.0349 9.44957 22.72 10.4238C22.6862 10.5291 22.6319 10.6267 22.5603 10.7109C22.4886 10.7951 22.401 10.8643 22.3024 10.9145C22.2039 10.9647 22.0964 10.9949 21.9862 11.0034C21.8759 11.0118 21.765 10.9984 21.66 10.9638C21.4474 10.8946 21.271 10.744 21.1694 10.5449C21.0678 10.3458 21.0493 10.1145 21.118 9.9018C21.3422 9.20986 21.3803 8.47106 21.2284 7.75973C21.0765 7.04841 20.7399 6.38963 20.2525 5.84967C19.7652 5.30971 19.1442 4.90761 18.4521 4.68381C17.7601 4.46001 17.0212 4.42242 16.31 4.5748C16.0967 4.60805 15.8787 4.55839 15.7009 4.436C15.523 4.31361 15.3987 4.12778 15.3536 3.91666C15.3084 3.70554 15.3458 3.48513 15.458 3.30069C15.5702 3.11624 15.7487 2.98074 15.957 2.9238ZM16.583 5.8508C17.0699 5.74683 17.5756 5.77288 18.0492 5.92633C18.5229 6.07977 18.9478 6.3552 19.2812 6.72493C19.6147 7.09466 19.8449 7.54565 19.9488 8.03257C20.0527 8.5195 20.0265 9.02518 19.873 9.4988C19.8451 9.59131 19.7991 9.67731 19.7375 9.75176C19.6759 9.82621 19.6001 9.8876 19.5144 9.93232C19.4288 9.97705 19.3351 10.0042 19.2388 10.0122C19.1425 10.0202 19.0456 10.0089 18.9538 9.97886C18.8619 9.94887 18.777 9.90082 18.704 9.83755C18.631 9.77427 18.5714 9.69704 18.5286 9.61039C18.4859 9.52375 18.4609 9.42943 18.4551 9.33299C18.4493 9.23655 18.4629 9.13993 18.495 9.0488C18.5712 8.81741 18.5848 8.56997 18.5344 8.33162C18.484 8.09328 18.3714 7.87253 18.208 7.6918C18.0441 7.51151 17.8357 7.37731 17.6038 7.30257C17.3719 7.22783 17.1244 7.21515 16.886 7.2658C16.6984 7.30598 16.5024 7.26998 16.3414 7.1657C16.1803 7.06143 16.0672 6.89744 16.027 6.7098C15.9868 6.52216 16.0228 6.32624 16.1271 6.16515C16.2314 6.00406 16.3954 5.89098 16.583 5.8508Z" fill="white"/>
</svg>
